<?xml version="1.0" encoding="utf-8"?>
<!-- Generator: Adobe Illustrator 16.0.4, SVG Export Plug-In . SVG Version: 6.00 Build 0)  -->
<!DOCTYPE svg PUBLIC "-//W3C//DTD SVG 1.1//EN" "http://www.w3.org/Graphics/SVG/1.1/DTD/svg11.dtd">
<svg version="1.1" xmlns="http://www.w3.org/2000/svg" xmlns:xlink="http://www.w3.org/1999/xlink" x="0px" y="0px"
	 width="547.482px" height="147.256px" viewBox="0 0 547.482 147.256" enable-background="new 0 0 547.482 147.256"
	 xml:space="preserve">
<g id="Ebene_1">
	<g>
		<path fill="#1F1D21" d="M32.79,109.37H9.129v9.379h21.736v7.888H9.129v11.552h24.717v7.888H0v-44.594h32.79V109.37z"/>
		<path fill="#1F1D21" d="M67.629,101.482h8.694v44.594h-9.315l-18.196-31.799h-0.125v31.799h-8.694v-44.594h9.812l17.699,31.055
			h0.125V101.482z"/>
		<path fill="#1F1D21" d="M105.2,122.041h18.63v24.035h-6.21l-0.932-5.59c-2.36,2.732-5.775,6.77-13.911,6.77
			c-10.744,0-20.494-7.701-20.494-23.353c0-12.173,6.769-23.663,21.798-23.601c13.663,0,19.065,8.882,19.562,15.03h-9.315
			c0-1.739-3.167-7.329-9.75-7.329c-6.645,0-12.793,4.597-12.793,16.024c0,12.173,6.645,15.34,12.979,15.34
			c2.05,0,8.881-0.807,10.806-9.812H105.2V122.041z"/>
		<path fill="#1F1D21" d="M164.383,109.37h-23.661v9.379h21.736v7.888h-21.736v11.552h24.717v7.888h-33.846v-44.594h32.79V109.37z"
			/>
		<g>
			<path fill="#1F1D21" d="M181.395,138.002h22.17v8.074H172.08v-44.594h9.315V138.002z"/>
		</g>
		<g>
			<path fill="#FF0000" d="M233.456,111.73c0,2.298-1.739,4.037-4.099,5.527c-2.112-2.298-3.229-4.099-3.229-5.589
				c0-2.36,1.677-3.603,3.602-3.603C231.841,108.066,233.456,109.246,233.456,111.73z M244.82,136.325
				c2.981-3.912,4.534-7.391,5.092-13.415h-7.701c-0.311,3.416-1.18,5.59-2.298,7.329l-6.334-7.826
				c1.801-1.056,7.39-4.348,7.39-10.62c0-7.143-6.024-10.311-10.93-10.311c-6.956,0-11.862,4.161-11.862,10.248
				c0,3.851,2.174,7.205,4.037,9.316l-0.931,0.559c-7.39,4.472-8.57,8.695-8.57,12.98c0,6.646,5.403,12.67,13.911,12.67
				c6.707,0,10.123-2.359,12.731-4.969l3.043,3.789h10.495L244.82,136.325z M234.884,136.822c-1.49,1.366-4.037,3.105-6.893,3.105
				c-5.217,0-6.583-4.161-6.583-5.9c0-3.54,1.615-4.782,5.279-7.453L234.884,136.822z"/>
		</g>
		<path fill="#1F1D21" d="M285.035,101.482h9.688l-15.153,44.594h-8.88l-15.028-44.594h9.998l9.564,33.787h0.124L285.035,101.482z"
			/>
		<path fill="#1F1D21" d="M305.888,123.779c0-12.483,7.08-15.589,12.11-15.589s12.109,3.105,12.109,15.589
			c0,12.484-7.079,15.589-12.109,15.589S305.888,136.264,305.888,123.779z M296.573,123.779c0,20.931,15.525,23.477,21.426,23.477
			c5.899,0,21.425-2.546,21.425-23.477s-15.525-23.477-21.425-23.477C312.098,100.303,296.573,102.849,296.573,123.779z
			 M315.886,89.247h-7.824v7.143h7.824V89.247z M327.997,89.247h-7.825v7.143h7.825V89.247z"/>
		<path fill="#1F1D21" d="M355.155,138.002h22.171v8.074h-31.486v-44.594h9.315V138.002z"/>
		<path fill="#1F1D21" d="M393.347,146.076h-9.315v-44.594h9.315v18.136l17.016-18.136h12.048l-18.195,18.26l19.251,26.334h-11.985
			l-13.787-19.563l-4.347,4.472V146.076z"/>
		<path fill="#1F1D21" d="M460.541,109.37h-23.661v9.379h21.736v7.888h-21.736v11.552h24.717v7.888H427.75v-44.594h32.79V109.37z"/>
		<path fill="#1F1D21" d="M477.867,121.109v-11.925h11.613c5.465,0,6.521,3.478,6.521,5.838c0,4.409-2.36,6.087-7.204,6.087H477.867
			z M468.738,146.076h9.129v-17.452h9.626c6.893,0,7.266,2.36,7.266,8.446c0,4.596,0.373,6.895,0.993,9.006h10.31v-1.18
			c-1.987-0.746-1.987-2.36-1.987-8.882c0-8.322-1.987-9.688-5.651-11.304c4.409-1.49,6.894-5.714,6.894-10.62
			c0-3.851-2.174-12.608-14.035-12.608h-22.543V146.076z"/>
		<path fill="#1F1D21" d="M519.785,132.351c0.062,2.484,1.304,7.204,9.439,7.204c4.409,0,9.315-1.056,9.315-5.775
			c0-3.479-3.354-4.41-8.073-5.528l-4.782-1.117c-7.204-1.678-14.159-3.292-14.159-13.105c0-4.969,2.67-13.726,17.141-13.726
			c13.662,0,17.326,8.943,17.388,14.409h-8.942c-0.248-1.987-0.993-6.708-9.129-6.708c-3.54,0-7.763,1.305-7.763,5.342
			c0,3.478,2.856,4.223,4.72,4.658l10.868,2.67c6.086,1.491,11.675,3.976,11.675,11.987c0,13.415-13.662,14.595-17.575,14.595
			c-16.271,0-19.065-9.378-19.065-14.905H519.785z"/>
	</g>
</g>
<g id="Ebene_2">
	<path fill="none" stroke="#1F1D21" stroke-width="0.5" stroke-miterlimit="3.8637" d="M252.431,39.518L252.431,39.518
		L252.431,39.518z"/>
	
		<line fill="none" stroke="#1F1D21" stroke-width="0.5" stroke-miterlimit="3.8637" x1="193.872" y1="29.675" x2="353.128" y2="29.685"/>
	
		<line fill="none" stroke="#1F1D21" stroke-width="1.2" stroke-miterlimit="3.8637" x1="193.872" y1="62.325" x2="193.872" y2="29.675"/>
	<g>
		
			<line fill="none" stroke="#1F1D21" stroke-width="0.7" stroke-miterlimit="3.8637" x1="238.964" y1="29.675" x2="238.911" y2="64.003"/>
		
			<line fill="none" stroke="#1F1D21" stroke-width="0.7" stroke-miterlimit="3.8637" x1="243.523" y1="29.675" x2="243.523" y2="62.325"/>
		
			<line fill="none" stroke="#1F1D21" stroke-width="0.7" stroke-miterlimit="3.8637" x1="304.01" y1="29.675" x2="304.01" y2="62.325"/>
		
			<line fill="none" stroke="#1F1D21" stroke-width="0.7" stroke-miterlimit="3.8637" x1="308.571" y1="29.914" x2="308.571" y2="64.003"/>
	</g>
	<polyline fill="none" stroke="#1F1D21" stroke-width="0.5" stroke-miterlimit="3.8637" points="235.571,65.83 235.571,64.006 
		311.899,64.006 311.899,65.804 	"/>
	<polyline fill="none" stroke="#1F1D21" stroke-width="0.5" stroke-miterlimit="3.8637" points="233.411,67.549 233.411,65.926 
		314.059,65.926 314.071,67.852 	"/>
	<path fill="none" stroke="#1F1D21" stroke-width="0.5" stroke-miterlimit="3.8637" d="M236.057,26.695h75.369
		c0,0-0.285,2.978-2.641,2.978c-2.357-0.001-67.389-0.001-69.753-0.001C236.207,29.672,236.057,26.695,236.057,26.695z"/>
	
		<line fill="none" stroke="#1F1D21" stroke-width="0.5" stroke-miterlimit="3.8637" x1="352.831" y1="62.325" x2="194.129" y2="62.325"/>
	<polyline fill="none" stroke="#1F1D21" stroke-width="1.2" stroke-miterlimit="3.8637" points="313.907,67.435 354.919,67.424 
		354.905,61.968 352.78,61.968 	"/>
	
		<line fill="none" stroke="#1F1D21" stroke-width="0.5" stroke-miterlimit="3.8637" x1="233.488" y1="67.772" x2="314.014" y2="67.753"/>
	<polyline fill="none" stroke="#1F1D21" stroke-width="1.2" stroke-miterlimit="3.8637" points="194.157,61.988 192.171,61.988 
		192.192,67.435 233.499,67.42 	"/>
	<path fill="none" stroke="#1F1D21" stroke-width="0.5" stroke-miterlimit="3.8637" d="M354.679,67.367"/>
	<path fill="none" stroke="#1F1D21" stroke-width="0.5" stroke-miterlimit="3.8637" d="M314.119,67.367"/>
	
		<line fill="none" stroke="#1F1D21" stroke-width="0.5" stroke-miterlimit="3.8637" x1="318.199" y1="58.244" x2="332.359" y2="58.244"/>
	<path fill="none" stroke="#1F1D21" stroke-width="0.5" stroke-miterlimit="3.8637" d="M332.375,40.477
		c0.424-0.166,0.953-0.036,1.201-0.479c0,0-0.008-2.627,0-3.361c0.006-0.734,0.35-1.078,0.6-1.359s1.32-1.042,1.32-1.042h-20.4
		c0,0,1.111,0.979,1.268,1.182s0.625,0.578,0.652,1.218c0.004,0.61-0.037,2.877,0,3.361c0.035,0.484,0.771,0.313,1.199,0.479"/>
	<polyline fill="none" stroke="#1F1D21" stroke-width="0.5" stroke-miterlimit="3.8637" points="318.199,62.325 318.199,36.156 
		332.359,36.156 332.359,62.325 	"/>
	
		<line fill="none" stroke="#1F1D21" stroke-width="0.5" stroke-miterlimit="3.8637" x1="324.306" y1="47.44" x2="319.771" y2="47.44"/>
	
		<line fill="none" stroke="#1F1D21" stroke-width="0.5" stroke-miterlimit="3.8637" x1="324.426" y1="52.002" x2="319.891" y2="52.002"/>
	
		<line fill="none" stroke="#1F1D21" stroke-width="0.5" stroke-miterlimit="3.8637" x1="324.426" y1="42.878" x2="319.891" y2="42.878"/>
	
		<line fill="none" stroke="#1F1D21" stroke-width="0.5" stroke-miterlimit="3.8637" x1="330.787" y1="47.44" x2="326.251" y2="47.44"/>
	
		<line fill="none" stroke="#1F1D21" stroke-width="0.5" stroke-miterlimit="3.8637" x1="330.787" y1="52.002" x2="326.251" y2="52.002"/>
	
		<line fill="none" stroke="#1F1D21" stroke-width="0.5" stroke-miterlimit="3.8637" x1="330.787" y1="42.878" x2="326.251" y2="42.878"/>
	<polygon fill="none" stroke="#1F1D21" stroke-width="0.5" stroke-miterlimit="3.8637" points="319.878,38.176 324.439,38.176 
		324.439,56.662 319.878,56.662 319.878,38.176 	"/>
	<polygon fill="none" stroke="#1F1D21" stroke-width="0.5" stroke-miterlimit="3.8637" points="326.359,38.316 330.679,38.316 
		330.679,56.803 326.359,56.803 326.359,38.316 	"/>
	<g>
		
			<line fill="none" stroke="#1F1D21" stroke-width="0.7" stroke-miterlimit="3.8637" x1="261.506" y1="29.675" x2="261.506" y2="62.325"/>
		
			<line fill="none" stroke="#1F1D21" stroke-width="0.7" stroke-miterlimit="3.8637" x1="264.627" y1="29.914" x2="264.627" y2="62.325"/>
		
			<line fill="none" stroke="#1F1D21" stroke-width="0.7" stroke-miterlimit="3.8637" x1="282.871" y1="29.675" x2="282.871" y2="62.325"/>
		
			<line fill="none" stroke="#1F1D21" stroke-width="0.7" stroke-miterlimit="3.8637" x1="285.99" y1="29.675" x2="285.99" y2="62.325"/>
		
			<path fill-rule="evenodd" clip-rule="evenodd" fill="#1F1D21" stroke="#1F1D21" stroke-width="0.5" stroke-miterlimit="3.8637" d="
			M263.048,29.863l-3.259-0.005c0,0-0.014,0.354,0.24,0.72c0.254,0.367,1.2,0.96,1.2,0.96l1.692,0.008v0.002h0.127h0.129v-0.002
			l1.69-0.008c0,0,0.947-0.594,1.202-0.96c0.254-0.366,0.24-0.72,0.24-0.72L263.048,29.863z"/>
		
			<path fill-rule="evenodd" clip-rule="evenodd" fill="#1F1D21" stroke="#1F1D21" stroke-width="0.5" stroke-miterlimit="3.8637" d="
			M284.435,29.863l-3.26-0.005c0,0-0.014,0.354,0.24,0.72c0.254,0.367,1.201,0.96,1.201,0.96l1.689,0.008v0.002h0.129h0.127v-0.002
			l1.691-0.008c0,0,0.945-0.594,1.199-0.96c0.254-0.366,0.24-0.72,0.24-0.72L284.435,29.863z"/>
		<polygon fill="#1F1D21" stroke="#1F1D21" stroke-width="0.5" stroke-miterlimit="3.8637" points="281.308,60.885 287.431,60.885 
			287.431,62.085 281.308,62.085 281.308,60.885 		"/>
		<polygon fill="#1F1D21" stroke="#1F1D21" stroke-width="0.5" stroke-miterlimit="3.8637" points="260.077,60.885 266.2,60.885 
			266.2,62.085 260.077,62.085 260.077,60.885 		"/>
	</g>
	
		<rect x="297.798" y="0.25" fill="none" stroke="#1F1D21" stroke-width="0.5" stroke-miterlimit="3.8637" width="4.561" height="4.209"/>
	
		<rect x="244.974" y="0.25" fill="none" stroke="#1F1D21" stroke-width="0.5" stroke-miterlimit="3.8637" width="4.561" height="4.209"/>
	<line fill="none" stroke="#1F1D21" stroke-width="1.2" stroke-miterlimit="3.8637" x1="353" y1="62.325" x2="353" y2="29.416"/>
	<path fill="none" stroke="#1F1D21" stroke-width="0.5" stroke-miterlimit="3.8637" d="M252.673,39.592L252.673,39.592
		L252.673,39.592z"/>
	<path fill="none" stroke="#1F1D21" stroke-width="0.5" stroke-miterlimit="3.8637" d="M295.162,39.592L295.162,39.592
		L295.162,39.592z"/>
	<g>
		<g>
			<path fill="none" stroke="#1F1D21" stroke-width="0.5" stroke-miterlimit="3.8637" d="M248.894,39.592
				c0.091-1.964,1.633-3.507,3.601-3.602c1.84,0.095,3.384,1.638,3.36,3.602"/>
			
				<line fill="none" stroke="#1F1D21" stroke-width="0.5" stroke-miterlimit="3.8637" x1="252.374" y1="39.592" x2="252.374" y2="33.35"/>
			
				<line fill="none" stroke="#1F1D21" stroke-width="0.5" stroke-miterlimit="3.8637" x1="256.937" y1="35.271" x2="255.017" y2="37.191"/>
			
				<line fill="none" stroke="#1F1D21" stroke-width="0.5" stroke-miterlimit="3.8637" x1="248.294" y1="35.271" x2="250.214" y2="37.191"/>
			<path fill="none" stroke="#1F1D21" stroke-width="0.5" stroke-miterlimit="3.8637" d="M260.034,39.575
				c-0.049-4.216-3.403-7.573-7.684-7.643c-3.962,0.069-7.278,3.489-7.393,7.621"/>
			<path fill="none" stroke="#1F1D21" stroke-width="0.5" stroke-miterlimit="3.8637" d="M252.375,33.35
				c-3.252,0.057-5.907,2.855-6.001,6.243h12.243C258.576,36.205,255.851,33.406,252.375,33.35z"/>
			<polygon fill="none" stroke="#1F1D21" stroke-width="0.5" stroke-miterlimit="3.8637" points="246.374,41.272 251.654,41.272 
				251.654,56.637 246.374,56.637 246.374,41.272 			"/>
			
				<line fill="none" stroke="#1F1D21" stroke-width="0.5" stroke-miterlimit="3.8637" x1="246.374" y1="48.955" x2="251.654" y2="48.955"/>
			
				<line fill="none" stroke="#1F1D21" stroke-width="0.5" stroke-miterlimit="3.8637" x1="246.374" y1="45.114" x2="251.654" y2="45.114"/>
			
				<line fill="none" stroke="#1F1D21" stroke-width="0.5" stroke-miterlimit="3.8637" x1="246.374" y1="52.316" x2="251.654" y2="52.316"/>
			
				<line fill="none" stroke="#1F1D21" stroke-width="0.5" stroke-miterlimit="3.8637" x1="249.015" y1="41.272" x2="249.015" y2="56.637"/>
			<polygon fill="none" stroke="#1F1D21" stroke-width="0.5" stroke-miterlimit="3.8637" points="253.334,41.272 258.617,41.272 
				258.617,56.637 253.334,56.637 253.334,41.272 			"/>
			
				<line fill="none" stroke="#1F1D21" stroke-width="0.5" stroke-miterlimit="3.8637" x1="253.335" y1="48.955" x2="258.616" y2="48.955"/>
			
				<line fill="none" stroke="#1F1D21" stroke-width="0.5" stroke-miterlimit="3.8637" x1="253.335" y1="45.114" x2="258.616" y2="45.114"/>
			
				<line fill="none" stroke="#1F1D21" stroke-width="0.5" stroke-miterlimit="3.8637" x1="253.335" y1="52.316" x2="258.616" y2="52.316"/>
			
				<line fill="none" stroke="#1F1D21" stroke-width="0.5" stroke-miterlimit="3.8637" x1="255.976" y1="41.272" x2="255.976" y2="56.637"/>
			
				<line fill="none" stroke="#1F1D21" stroke-width="0.5" stroke-miterlimit="3.8637" x1="244.954" y1="62.399" x2="244.954" y2="39.352"/>
			
				<line fill="none" stroke="#1F1D21" stroke-width="0.5" stroke-miterlimit="3.8637" x1="260.042" y1="62.399" x2="260.042" y2="39.352"/>
		</g>
		<g>
			<path fill="none" stroke="#1F1D21" stroke-width="0.5" stroke-miterlimit="3.8637" d="M291.504,39.592
				c0.09-1.964,1.633-3.507,3.6-3.602c1.84,0.095,3.383,1.638,3.359,3.602"/>
			
				<line fill="none" stroke="#1F1D21" stroke-width="0.5" stroke-miterlimit="3.8637" x1="294.985" y1="39.592" x2="294.985" y2="33.35"/>
			
				<line fill="none" stroke="#1F1D21" stroke-width="0.5" stroke-miterlimit="3.8637" x1="299.424" y1="35.271" x2="297.504" y2="37.191"/>
			
				<line fill="none" stroke="#1F1D21" stroke-width="0.5" stroke-miterlimit="3.8637" x1="290.784" y1="35.271" x2="292.704" y2="37.191"/>
			<path fill="none" stroke="#1F1D21" stroke-width="0.5" stroke-miterlimit="3.8637" d="M302.52,39.575
				c-0.049-4.216-3.402-7.573-7.682-7.643c-3.961,0.069-7.277,3.489-7.393,7.621"/>
			<path fill="none" stroke="#1F1D21" stroke-width="0.5" stroke-miterlimit="3.8637" d="M294.865,33.35
				c-3.252,0.057-5.906,2.855-6,6.243h12.24C301.064,36.205,298.339,33.406,294.865,33.35z"/>
			<polygon fill="none" stroke="#1F1D21" stroke-width="0.5" stroke-miterlimit="3.8637" points="288.864,41.272 294.143,41.272 
				294.143,56.637 288.864,56.637 288.864,41.272 			"/>
			
				<line fill="none" stroke="#1F1D21" stroke-width="0.5" stroke-miterlimit="3.8637" x1="288.864" y1="48.955" x2="294.143" y2="48.955"/>
			
				<line fill="none" stroke="#1F1D21" stroke-width="0.5" stroke-miterlimit="3.8637" x1="288.864" y1="45.114" x2="294.143" y2="45.114"/>
			
				<line fill="none" stroke="#1F1D21" stroke-width="0.5" stroke-miterlimit="3.8637" x1="288.864" y1="52.316" x2="294.143" y2="52.316"/>
			
				<line fill="none" stroke="#1F1D21" stroke-width="0.5" stroke-miterlimit="3.8637" x1="291.504" y1="41.272" x2="291.504" y2="56.637"/>
			<polygon fill="none" stroke="#1F1D21" stroke-width="0.5" stroke-miterlimit="3.8637" points="295.823,41.272 301.104,41.272 
				301.104,56.637 295.823,56.637 295.823,41.272 			"/>
			
				<line fill="none" stroke="#1F1D21" stroke-width="0.5" stroke-miterlimit="3.8637" x1="295.823" y1="48.955" x2="301.104" y2="48.955"/>
			
				<line fill="none" stroke="#1F1D21" stroke-width="0.5" stroke-miterlimit="3.8637" x1="295.823" y1="45.114" x2="301.104" y2="45.114"/>
			
				<line fill="none" stroke="#1F1D21" stroke-width="0.5" stroke-miterlimit="3.8637" x1="295.823" y1="52.316" x2="301.104" y2="52.316"/>
			
				<line fill="none" stroke="#1F1D21" stroke-width="0.5" stroke-miterlimit="3.8637" x1="298.463" y1="41.272" x2="298.463" y2="56.637"/>
			
				<line fill="none" stroke="#1F1D21" stroke-width="0.5" stroke-miterlimit="3.8637" x1="287.444" y1="62.399" x2="287.444" y2="39.352"/>
			
				<line fill="none" stroke="#1F1D21" stroke-width="0.5" stroke-miterlimit="3.8637" x1="302.528" y1="62.399" x2="302.528" y2="39.352"/>
		</g>
	</g>
	
		<line fill="none" stroke="#1F1D21" stroke-width="0.5" stroke-miterlimit="3.8637" x1="214.272" y1="58.318" x2="228.432" y2="58.318"/>
	<path fill="none" stroke="#1F1D21" stroke-width="0.5" stroke-miterlimit="3.8637" d="M228.432,40.552
		c0.426-0.167,0.955-0.037,1.201-0.48c0,0-0.008-2.627,0-3.361c0.008-0.734,0.352-1.078,0.602-1.359s1.318-1.042,1.318-1.042h-20.4
		c0,0,1.112,0.979,1.269,1.182s0.625,0.578,0.651,1.218c0.005,0.61-0.036,2.877,0,3.361c0.036,0.485,0.771,0.313,1.199,0.48"/>
	<polyline fill="none" stroke="#1F1D21" stroke-width="0.5" stroke-miterlimit="3.8637" points="214.272,62.399 214.272,36.23 
		228.432,36.23 228.432,62.399 	"/>
	
		<line fill="none" stroke="#1F1D21" stroke-width="0.5" stroke-miterlimit="3.8637" x1="220.5" y1="47.515" x2="215.965" y2="47.515"/>
	
		<line fill="none" stroke="#1F1D21" stroke-width="0.5" stroke-miterlimit="3.8637" x1="220.5" y1="52.076" x2="215.965" y2="52.076"/>
	
		<line fill="none" stroke="#1F1D21" stroke-width="0.5" stroke-miterlimit="3.8637" x1="220.501" y1="42.953" x2="215.965" y2="42.953"/>
	
		<line fill="none" stroke="#1F1D21" stroke-width="0.5" stroke-miterlimit="3.8637" x1="226.741" y1="47.515" x2="222.206" y2="47.515"/>
	
		<line fill="none" stroke="#1F1D21" stroke-width="0.5" stroke-miterlimit="3.8637" x1="226.741" y1="52.076" x2="222.206" y2="52.076"/>
	
		<line fill="none" stroke="#1F1D21" stroke-width="0.5" stroke-miterlimit="3.8637" x1="226.741" y1="42.953" x2="222.206" y2="42.953"/>
	<polygon fill="none" stroke="#1F1D21" stroke-width="0.5" stroke-miterlimit="3.8637" points="215.953,38.391 220.512,38.391 
		220.512,56.877 215.953,56.877 215.953,38.391 	"/>
	<polygon fill="none" stroke="#1F1D21" stroke-width="0.5" stroke-miterlimit="3.8637" points="222.194,38.391 226.752,38.391 
		226.752,56.877 222.194,56.877 222.194,38.391 	"/>
	<path fill="none" stroke="#1F1D21" stroke-width="0.5" stroke-miterlimit="3.8637" d="M270.26,39.592
		c0.09-1.964,1.634-3.507,3.601-3.602c1.84,0.095,3.383,1.638,3.36,3.602"/>
	
		<line fill="none" stroke="#1F1D21" stroke-width="0.5" stroke-miterlimit="3.8637" x1="273.741" y1="39.592" x2="273.741" y2="33.35"/>
	
		<line fill="none" stroke="#1F1D21" stroke-width="0.5" stroke-miterlimit="3.8637" x1="278.062" y1="35.271" x2="276.142" y2="37.191"/>
	
		<line fill="none" stroke="#1F1D21" stroke-width="0.5" stroke-miterlimit="3.8637" x1="269.419" y1="35.271" x2="271.34" y2="37.191"/>
	<path fill="none" stroke="#1F1D21" stroke-width="0.5" stroke-miterlimit="3.8637" d="M273.921,39.592L273.921,39.592
		L273.921,39.592z"/>
	<path fill="none" stroke="#1F1D21" stroke-width="0.5" stroke-miterlimit="3.8637" d="M281.28,39.575
		c-0.049-4.216-3.402-7.573-7.683-7.643c-3.962,0.069-7.28,3.489-7.395,7.621"/>
	<path fill="none" stroke="#1F1D21" stroke-width="0.5" stroke-miterlimit="3.8637" d="M273.621,33.35
		c-3.253,0.057-5.908,2.855-6.002,6.243h12.244C279.822,36.205,277.097,33.406,273.621,33.35z"/>
	
		<line fill="none" stroke="#1F1D21" stroke-width="0.5" stroke-miterlimit="3.8637" x1="266.197" y1="62.399" x2="266.197" y2="39.352"/>
	
		<line fill="none" stroke="#1F1D21" stroke-width="0.5" stroke-miterlimit="3.8637" x1="281.285" y1="62.399" x2="281.285" y2="39.352"/>
	<g>
		<polygon fill="none" stroke="#1F1D21" stroke-width="0.5" stroke-miterlimit="3.8637" points="267.62,41.272 272.9,41.272 
			272.906,56.685 267.62,56.637 267.62,41.272 		"/>
		
			<line fill="none" stroke="#1F1D21" stroke-width="0.5" stroke-miterlimit="3.8637" x1="267.62" y1="48.955" x2="272.9" y2="48.955"/>
		
			<line fill="none" stroke="#1F1D21" stroke-width="0.5" stroke-miterlimit="3.8637" x1="267.62" y1="45.114" x2="272.9" y2="45.114"/>
		
			<line fill="none" stroke="#1F1D21" stroke-width="0.5" stroke-miterlimit="3.8637" x1="267.62" y1="52.316" x2="272.9" y2="52.316"/>
		
			<line fill="none" stroke="#1F1D21" stroke-width="0.5" stroke-miterlimit="3.8637" x1="270.261" y1="41.272" x2="270.261" y2="56.637"/>
		<polygon fill="none" stroke="#1F1D21" stroke-width="0.5" stroke-miterlimit="3.8637" points="274.581,41.272 279.862,41.272 
			279.862,56.637 274.581,56.637 274.581,41.272 		"/>
		
			<line fill="none" stroke="#1F1D21" stroke-width="0.5" stroke-miterlimit="3.8637" x1="274.581" y1="48.955" x2="279.862" y2="48.955"/>
		
			<line fill="none" stroke="#1F1D21" stroke-width="0.5" stroke-miterlimit="3.8637" x1="274.581" y1="45.114" x2="279.862" y2="45.114"/>
		
			<line fill="none" stroke="#1F1D21" stroke-width="0.5" stroke-miterlimit="3.8637" x1="274.581" y1="52.316" x2="279.862" y2="52.316"/>
		
			<line fill="none" stroke="#1F1D21" stroke-width="0.5" stroke-miterlimit="3.8637" x1="277.221" y1="41.272" x2="277.221" y2="56.637"/>
		
			<line fill="none" stroke="#1F1D21" stroke-width="0.5" stroke-miterlimit="3.8637" x1="272.906" y1="56.54" x2="272.906" y2="62.26"/>
		
			<line fill="none" stroke="#1F1D21" stroke-width="0.5" stroke-miterlimit="3.8637" x1="274.606" y1="56.54" x2="274.606" y2="62.26"/>
	</g>
	<path fill="none" d="M261.157,20.459c0.365,0,3.447-0.008,3.807-0.008s0.577-0.281,0.577-0.602s-0.18-0.61-0.584-0.61
		c-0.402,0-3.384,0.008-3.781,0.008c-0.398,0-0.598,0.266-0.598,0.594S260.791,20.459,261.157,20.459z"/>
	<rect x="261.915" y="21.057" fill="none" width="2.411" height="3.361"/>
	<path fill="none" d="M266.924,20.454c0.489-0.006,13.237-0.002,13.683-0.002s0.719-0.234,0.719-0.586s-0.219-0.61-0.727-0.61
		s-13.188-0.016-13.675-0.003c-0.488,0.013-0.727,0.253-0.725,0.597C266.204,20.195,266.434,20.459,266.924,20.454z"/>
	<rect x="243.854" y="21.057" fill="none" width="17.295" height="3.361"/>
	<circle fill="none" cx="241.161" cy="11.868" r="0.436"/>
	<path fill="none" d="M245.656,20.454c0.489-0.006,13.24-0.002,13.686-0.002s0.719-0.234,0.719-0.586s-0.219-0.61-0.727-0.61
		s-13.19-0.016-13.678-0.003c-0.488,0.013-0.727,0.253-0.723,0.597C244.936,20.195,245.167,20.459,245.656,20.454z"/>
	<polygon fill="none" points="265.096,21.057 265.096,24.418 273.744,24.418 282.39,24.418 282.39,21.057 273.744,21.057 	"/>
	<rect x="283.16" y="21.057" fill="none" width="2.408" height="3.361"/>
	<path fill="none" d="M238.99,14.046c0.146,0.123,0.48,0.301,0.655,0.467c0.176,0.166,0.205,1.991,0.318,2.161
		c0.114,0.171,0.847,0.488,1.2,0.48c0.354-0.009,1.064-0.282,1.2-0.48c0.136-0.197,0.21-1.9,0.345-2.114s0.45-0.39,0.614-0.525
		c0.163-0.135,0.547-0.485,0.38-0.704s-0.682,0-0.926-0.018c-0.245-0.018-0.783-0.229-0.973-0.418
		c-0.19-0.189-0.402-0.312-0.641-0.303c-0.238,0.011-0.465,0.225-0.633,0.325c-0.167,0.101-0.745,0.386-0.916,0.401
		s-0.792-0.268-1.005-0.011C238.398,13.565,238.845,13.923,238.99,14.046z"/>
	<path fill="none" d="M282.421,20.459c0.365,0,3.443-0.008,3.805-0.008c0.359,0,0.576-0.281,0.576-0.602s-0.18-0.61-0.584-0.61
		c-0.402,0-3.381,0.008-3.779,0.008c-0.396,0-0.596,0.266-0.596,0.594S282.054,20.459,282.421,20.459z"/>
	<circle fill="none" cx="306.367" cy="18.113" r="0.67"/>
	<path fill="none" d="M288.183,20.454c0.49-0.006,13.234-0.002,13.68-0.002s0.719-0.234,0.719-0.586s-0.219-0.61-0.727-0.61
		s-13.184-0.016-13.672-0.003c-0.486,0.013-0.725,0.253-0.723,0.597C287.464,20.195,287.695,20.459,288.183,20.454z"/>
	<path fill="none" d="M304.193,14.046c0.145,0.123,0.479,0.301,0.654,0.467s0.205,1.991,0.318,2.161
		c0.113,0.171,0.846,0.488,1.199,0.48c0.354-0.009,1.064-0.282,1.199-0.48c0.137-0.197,0.211-1.9,0.346-2.114
		s0.449-0.39,0.613-0.525c0.164-0.135,0.547-0.485,0.379-0.704c-0.166-0.219-0.68,0-0.924-0.018
		c-0.246-0.018-0.783-0.229-0.973-0.418s-0.402-0.312-0.641-0.303c-0.238,0.011-0.465,0.225-0.633,0.325
		c-0.166,0.101-0.744,0.386-0.916,0.401c-0.17,0.016-0.791-0.268-1.004-0.011S304.046,13.923,304.193,14.046z"/>
	<circle fill="none" cx="241.166" cy="18.113" r="0.67"/>
	<rect x="304.41" y="21.057" fill="none" width="3.828" height="3.361"/>
	<path fill="none" d="M308.671,24.912c-0.506,0-4.256,0.008-4.756,0.008s-0.75,0.266-0.75,0.594s0.266,0.617,0.727,0.617
		s4.336-0.008,4.787-0.008c0.453,0,0.727-0.281,0.727-0.602S309.179,24.912,308.671,24.912z"/>
	<path fill="none" d="M301.855,25.025c-0.508,0-13.184-0.016-13.672-0.002c-0.486,0.012-0.725,0.252-0.723,0.596
		c0.004,0.345,0.234,0.609,0.723,0.604c0.49-0.006,13.234-0.002,13.68-0.002s0.719-0.234,0.719-0.586S302.363,25.025,301.855,25.025
		z"/>
	<path fill="none" d="M308.671,19.24c-0.506,0-4.256,0.008-4.756,0.008s-0.75,0.266-0.75,0.594s0.266,0.617,0.727,0.617
		s4.336-0.008,4.787-0.008c0.453,0,0.727-0.281,0.727-0.602S309.179,19.24,308.671,19.24z"/>
	<circle fill="none" cx="306.363" cy="11.868" r="0.436"/>
	<path fill="none" d="M286.218,25.009c-0.402,0-3.381,0.008-3.779,0.008c-0.396,0-0.596,0.266-0.596,0.594s0.211,0.617,0.578,0.617
		c0.365,0,3.443-0.008,3.805-0.008c0.359,0,0.576-0.281,0.576-0.602S286.623,25.009,286.218,25.009z"/>
	<path fill="none" d="M264.957,25.009c-0.402,0-3.384,0.008-3.781,0.008c-0.398,0-0.598,0.266-0.598,0.594s0.212,0.617,0.578,0.617
		c0.365,0,3.447-0.008,3.807-0.008s0.577-0.281,0.577-0.602S265.361,25.009,264.957,25.009z"/>
	<path fill="none" d="M243.472,25.009c-0.508,0-4.258,0.008-4.758,0.008s-0.75,0.266-0.75,0.594s0.266,0.617,0.727,0.617
		s4.336-0.008,4.789-0.008s0.727-0.281,0.727-0.602S243.98,25.009,243.472,25.009z"/>
	<path fill="none" d="M280.599,25.025c-0.508,0-13.188-0.016-13.675-0.002c-0.488,0.012-0.727,0.252-0.725,0.596
		c0.004,0.345,0.234,0.609,0.725,0.604c0.489-0.006,13.237-0.002,13.683-0.002s0.719-0.234,0.719-0.586
		S281.107,25.025,280.599,25.025z"/>
	<path fill="none" d="M238.691,20.459c0.461,0,4.336-0.008,4.789-0.008s0.727-0.281,0.727-0.602s-0.227-0.61-0.734-0.61
		s-4.258,0.008-4.758,0.008s-0.75,0.266-0.75,0.594S238.23,20.459,238.691,20.459z"/>
	<rect x="239.243" y="21.057" fill="none" width="3.827" height="3.361"/>
	<path fill="none" d="M259.334,25.025c-0.508,0-13.19-0.016-13.678-0.002c-0.488,0.012-0.727,0.252-0.723,0.596
		c0.003,0.345,0.234,0.609,0.723,0.604s13.24-0.002,13.686-0.002s0.719-0.234,0.719-0.586S259.842,25.025,259.334,25.025z"/>
	<rect x="286.335" y="21.057" fill="none" width="17.291" height="3.361"/>
	<path fill="none" d="M273.56,10.467c-3.666,0.086-6.6,3.02-6.483,6.723h12.962C280.066,13.486,277.132,10.553,273.56,10.467z
		 M270.117,12.704l-0.034-0.043L270.117,12.704c0.857-0.802,1.991-1.403,3.421-1.403c0.004,0,0.01,0.001,0.016,0.001v-0.048v0.048
		c1.405,0.005,2.557,0.604,3.444,1.401l0.008-0.011l-0.008,0.011c1.424,1.279,2.164,3.067,2.164,3.741h-11.047
		C268.114,15.718,268.771,13.962,270.117,12.704z"/>
	<path fill="none" stroke="#1F1D21" stroke-width="0.5" d="M275.07,15.145l-0.002,0.002L275.07,15.145
		c0.412,0.453,0.623,1,0.623,1.268c0,0.032-4.328,0-4.328,0c0-0.251,0.231-0.83,0.676-1.299l0.027,0.033l-0.027-0.033
		c0.359-0.379,0.859-0.686,1.497-0.686c0.004,0,0.01,0.001,0.016,0.001v1.875v-1.875C274.208,14.433,274.714,14.753,275.07,15.145z"
		/>
	<path fill="none" stroke="#1F1D21" stroke-width="0.5" d="M279.162,16.444h-11.047c0-0.726,0.657-2.481,2.003-3.74l1.924,2.409
		c-0.445,0.469-0.676,1.048-0.676,1.299c0,0,4.328,0.032,4.328,0c0-0.268-0.211-0.814-0.623-1.268l1.928-2.441
		C278.421,13.982,279.162,15.771,279.162,16.444z"/>
	<path d="M273.56,10.467c3.573,0.086,6.506,3.02,6.479,6.723h-12.962C266.959,13.486,269.894,10.553,273.56,10.467z M311,2.304
		h-8.641v2.161h-4.561V2.304h-48.247v2.161h-4.56V2.304h-8.4l-45.84,22.809c0.249,0.889,0.825,1.724,1.199,2.213
		c0,0.029,163.541-0.01,163.541-0.01s0.566-0.788,0.889-1.377c0.322-0.59,0.35-0.924,0.35-0.924L311,2.304z M306.363,11.432
		c0.24,0,0.436,0.194,0.436,0.436c0,0.24-0.195,0.436-0.436,0.436c-0.242,0-0.436-0.196-0.436-0.436
		C305.927,11.626,306.121,11.432,306.363,11.432z M303.812,13.309c0.213-0.257,0.834,0.026,1.004,0.011
		c0.172-0.016,0.75-0.301,0.916-0.401c0.168-0.101,0.395-0.314,0.633-0.325c0.238-0.01,0.451,0.113,0.641,0.303
		s0.727,0.4,0.973,0.418c0.244,0.018,0.758-0.201,0.924,0.018c0.168,0.219-0.215,0.569-0.379,0.704
		c-0.164,0.136-0.479,0.312-0.613,0.525s-0.209,1.917-0.346,2.114c-0.135,0.198-0.846,0.472-1.199,0.48
		c-0.354,0.008-1.086-0.31-1.199-0.48c-0.113-0.17-0.143-1.995-0.318-2.161s-0.51-0.344-0.654-0.467
		C304.046,13.923,303.599,13.565,303.812,13.309z M307.037,18.113c0,0.37-0.301,0.67-0.67,0.67s-0.67-0.3-0.67-0.67
		c0-0.371,0.301-0.671,0.67-0.671S307.037,17.743,307.037,18.113z M288.183,19.253c0.488-0.013,13.164,0.003,13.672,0.003
		s0.727,0.258,0.727,0.61s-0.273,0.586-0.719,0.586s-13.189-0.004-13.68,0.002c-0.488,0.006-0.719-0.259-0.723-0.604
		C287.458,19.506,287.697,19.266,288.183,19.253z M303.626,21.057v3.361h-17.291v-3.361H303.626z M282.439,19.248
		c0.398,0,3.377-0.008,3.779-0.008c0.404,0,0.584,0.29,0.584,0.61s-0.217,0.602-0.576,0.602c-0.361,0-3.439,0.008-3.805,0.008
		c-0.367,0-0.578-0.289-0.578-0.617S282.042,19.248,282.439,19.248z M285.568,21.057v3.361h-2.408v-3.361H285.568z M282.39,21.057
		v3.361h-8.646h-8.648v-3.361h8.648H282.39z M266.924,19.253c0.487-0.013,13.167,0.003,13.675,0.003s0.727,0.258,0.727,0.61
		s-0.273,0.586-0.719,0.586s-13.194-0.004-13.683,0.002c-0.49,0.006-0.721-0.259-0.725-0.604
		C266.198,19.506,266.436,19.266,266.924,19.253z M261.176,19.248c0.396,0,3.378-0.008,3.781-0.008c0.404,0,0.584,0.29,0.584,0.61
		s-0.217,0.602-0.577,0.602s-3.442,0.008-3.807,0.008c-0.366,0-0.578-0.289-0.578-0.617S260.778,19.248,261.176,19.248z
		 M264.326,21.057v3.361h-2.411v-3.361H264.326z M261.149,21.057v3.361h-17.295v-3.361H261.149z M245.656,19.253
		c0.488-0.013,13.17,0.003,13.678,0.003s0.727,0.258,0.727,0.61s-0.273,0.586-0.719,0.586s-13.197-0.004-13.686,0.002
		s-0.72-0.259-0.723-0.604C244.93,19.506,245.168,19.266,245.656,19.253z M241.161,11.432c0.241,0,0.436,0.194,0.436,0.436
		c0,0.24-0.194,0.436-0.436,0.436c-0.24,0-0.436-0.196-0.436-0.436C240.725,11.626,240.92,11.432,241.161,11.432z M238.61,13.309
		c0.213-0.257,0.834,0.026,1.005,0.011s0.749-0.301,0.916-0.401c0.168-0.101,0.395-0.314,0.633-0.325
		c0.238-0.01,0.45,0.113,0.641,0.303c0.189,0.189,0.728,0.4,0.973,0.418c0.244,0.018,0.759-0.201,0.926,0.018
		s-0.217,0.569-0.38,0.704c-0.164,0.136-0.479,0.312-0.614,0.525s-0.209,1.917-0.345,2.114c-0.136,0.198-0.846,0.472-1.2,0.48
		c-0.354,0.008-1.086-0.31-1.2-0.48c-0.113-0.17-0.143-1.995-0.318-2.161c-0.175-0.166-0.51-0.344-0.655-0.467
		C238.845,13.923,238.398,13.565,238.61,13.309z M241.835,18.113c0,0.37-0.3,0.67-0.67,0.67s-0.67-0.3-0.67-0.67
		c0-0.371,0.3-0.671,0.67-0.671S241.835,17.743,241.835,18.113z M238.714,19.248c0.5,0,4.25-0.008,4.758-0.008
		s0.734,0.29,0.734,0.61s-0.273,0.602-0.727,0.602s-4.328,0.008-4.789,0.008s-0.727-0.289-0.727-0.617
		S238.214,19.248,238.714,19.248z M243.07,21.057v3.361h-3.827v-3.361H243.07z M243.48,26.22c-0.453,0-4.328,0.008-4.789,0.008
		s-0.727-0.289-0.727-0.617s0.25-0.594,0.75-0.594s4.25-0.008,4.758-0.008s0.734,0.289,0.734,0.609S243.933,26.22,243.48,26.22z
		 M259.342,26.22c-0.445,0-13.197-0.004-13.686,0.002s-0.72-0.259-0.723-0.604c-0.003-0.344,0.235-0.584,0.723-0.596
		c0.488-0.014,13.17,0.002,13.678,0.002s0.727,0.258,0.727,0.609S259.787,26.22,259.342,26.22z M264.964,26.22
		c-0.36,0-3.442,0.008-3.807,0.008c-0.366,0-0.578-0.289-0.578-0.617s0.199-0.594,0.598-0.594c0.396,0,3.378-0.008,3.781-0.008
		c0.404,0,0.584,0.289,0.584,0.609S265.324,26.22,264.964,26.22z M280.607,26.22c-0.445,0-13.194-0.004-13.683,0.002
		c-0.49,0.006-0.721-0.259-0.725-0.604c-0.002-0.344,0.236-0.584,0.725-0.596c0.487-0.014,13.167,0.002,13.675,0.002
		s0.727,0.258,0.727,0.609S281.052,26.22,280.607,26.22z M286.226,26.22c-0.361,0-3.439,0.008-3.805,0.008
		c-0.367,0-0.578-0.289-0.578-0.617s0.199-0.594,0.596-0.594c0.398,0,3.377-0.008,3.779-0.008c0.404,0,0.584,0.289,0.584,0.609
		S286.585,26.22,286.226,26.22z M301.863,26.22c-0.445,0-13.189-0.004-13.68,0.002c-0.488,0.006-0.719-0.259-0.723-0.604
		c-0.002-0.344,0.236-0.584,0.723-0.596c0.488-0.014,13.164,0.002,13.672,0.002s0.727,0.258,0.727,0.609
		S302.308,26.22,301.863,26.22z M308.679,26.124c-0.451,0-4.326,0.008-4.787,0.008s-0.727-0.289-0.727-0.617s0.25-0.594,0.75-0.594
		s4.25-0.008,4.756-0.008c0.508,0,0.734,0.29,0.734,0.61S309.132,26.124,308.679,26.124z M304.41,24.418v-3.361h3.828v3.361H304.41z
		 M308.679,20.452c-0.451,0-4.326,0.008-4.787,0.008s-0.727-0.289-0.727-0.617s0.25-0.594,0.75-0.594s4.25-0.008,4.756-0.008
		c0.508,0,0.734,0.29,0.734,0.61S309.132,20.452,308.679,20.452z"/>
	<path fill="none" stroke="#1F1D21" stroke-width="0.5" stroke-miterlimit="3.8637" d="M273.554,14.428v-3.126
		c1.405,0.005,2.557,0.604,3.444,1.401l-1.928,2.441C274.714,14.753,274.208,14.433,273.554,14.428z"/>
	<path fill="none" stroke="#1F1D21" stroke-width="0.5" stroke-miterlimit="3.8637" d="M272.042,15.113l-1.924-2.409
		c0.857-0.802,1.991-1.403,3.421-1.403c0.004,0,0.01,0.001,0.016,0.001v3.126c-0.006,0-0.012-0.001-0.016-0.001
		C272.901,14.427,272.401,14.734,272.042,15.113z"/>
	<path fill="none" stroke="#1F1D21" stroke-width="1.2" stroke-miterlimit="3.8637" d="M355.945,25.314
		c-0.566,1.663-2.654,4.139-3.149,4.564"/>
	<path fill="none" stroke="#1F1D21" stroke-width="1.2" stroke-miterlimit="3.8637" d="M191.44,25.226
		c0.444,1.388,2.281,4.257,2.713,4.734"/>
</g>
</svg>
